<?xml version="1.0" standalone="no"?>
<!DOCTYPE svg PUBLIC "-//W3C//DTD SVG 20010904//EN"
 "http://www.w3.org/TR/2001/REC-SVG-20010904/DTD/svg10.dtd">
<svg version="1.0" xmlns="http://www.w3.org/2000/svg"
 width="600.000000pt" height="600.000000pt" viewBox="0 0 600.000000 600.000000"
 preserveAspectRatio="xMidYMid meet">
<metadata>
Created by potrace 1.11, written by Peter Selinger 2001-2013
</metadata>
<g transform="translate(0.000000,600.000000) scale(0.100000,-0.100000)"
fill="#000000" stroke="none">
<path d="M1645 5464 c-748 -267 -1364 -489 -1369 -494 -9 -9 401 -3609 413
-3622 12 -12 2306 -1281 2317 -1281 8 0 2294 1258 2321 1278 2 1 90 759 197
1686 108 926 202 1740 210 1809 8 69 12 128 8 132 -7 6 -708 258 -2145 769
-323 115 -588 209 -590 209 -1 -1 -614 -219 -1362 -486z m1487 -885 c29 -6 90
-28 135 -49 184 -85 343 -315 343 -494 l0 -36 -155 0 c-174 0 -218 -10 -235
-55 -16 -41 -12 -61 16 -94 l26 -31 174 0 174 0 0 -120 0 -120 -162 0 c-143 0
-167 -2 -195 -19 -37 -23 -50 -68 -31 -108 22 -47 48 -53 226 -53 l162 0 0
-109 0 -109 -167 -4 c-179 -3 -201 -9 -222 -55 -17 -38 -13 -60 18 -95 l29
-33 171 -3 171 -4 0 -36 c-1 -189 -155 -415 -343 -502 -100 -46 -162 -60 -274
-60 -155 0 -295 55 -409 163 -113 105 -179 237 -191 379 l-6 68 182 0 182 0
24 26 c34 37 34 87 -1 119 -26 25 -30 25 -205 25 l-179 0 0 114 0 115 181 3
181 3 24 28 c13 16 24 41 24 57 0 16 -11 41 -24 57 l-24 28 -181 3 -181 3 0
120 0 119 176 0 176 0 29 29 c48 48 36 111 -26 137 -25 10 -79 14 -195 14
l-160 0 0 33 c0 17 7 60 15 95 48 203 224 384 430 443 70 20 219 24 297 8z
m-1068 -1223 c69 -29 73 -42 79 -278 5 -234 19 -312 77 -437 81 -172 244 -336
415 -417 123 -59 211 -77 370 -77 123 0 150 3 228 26 119 37 210 84 302 159
141 113 238 258 291 435 24 79 27 110 33 303 7 242 11 259 79 287 47 20 100 5
137 -39 l27 -32 -5 -246 c-4 -214 -7 -254 -26 -320 -51 -172 -109 -283 -222
-423 -171 -213 -387 -333 -706 -393 -22 -4 -23 -8 -23 -129 l0 -125 263 0
c296 0 307 -3 341 -75 15 -32 16 -44 7 -76 -6 -21 -24 -49 -40 -62 l-29 -24
-629 -8 c-456 -5 -639 -4 -670 4 -46 12 -92 59 -94 94 -4 70 9 100 54 127 30
18 52 20 295 20 l262 0 0 125 c0 121 -1 125 -22 129 -243 45 -389 107 -538
228 -193 157 -323 351 -386 578 -25 87 -27 114 -31 333 -6 263 -5 268 60 307
38 24 57 25 101 6z"/>
</g>
</svg>
